<svg xmlns="http://www.w3.org/2000/svg" enable-background="new 0 0 24 24" viewBox="0 0 24 24"><path d="M4.25,17.004c-0.304,0-0.578-0.183-0.693-0.464l-3.5-8.5c-0.158-0.383,0.025-0.821,0.408-0.979c0.384-0.158,0.822,0.025,0.979,0.408l2.781,6.753l2.575-6.735c0.111-0.29,0.39-0.482,0.701-0.482h15.75c0.414,0,0.75,0.336,0.75,0.75s-0.336,0.75-0.75,0.75H8.016l-3.065,8.018C4.841,16.81,4.567,17,4.26,17.004C4.256,17.004,4.253,17.004,4.25,17.004z"/><path d="M11.25,17.004c-0.314,0-0.607-0.199-0.711-0.513L9.25,12.626l-1.289,3.866c-0.131,0.392-0.558,0.604-0.949,0.474c-0.393-0.131-0.605-0.556-0.474-0.949l2-6C8.641,9.711,8.927,9.504,9.25,9.504s0.609,0.207,0.711,0.513l2,6c0.131,0.393-0.081,0.818-0.474,0.949C11.409,16.992,11.329,17.004,11.25,17.004z"/><path d="M10.443 15.004H7.942c-.414 0-.75-.336-.75-.75s.336-.75.75-.75h2.501c.414 0 .75.336.75.75S10.857 15.004 10.443 15.004zM17.25 17.004c-.246 0-.482-.122-.624-.334L14 12.731v3.523c0 .414-.336.75-.75.75s-.75-.336-.75-.75v-6c0-.331.216-.622.533-.718.316-.097.658.027.841.302l2.626 3.939v-3.523c0-.414.336-.75.75-.75S18 9.84 18 10.254v6c0 .331-.216.622-.533.718C17.396 16.994 17.322 17.004 17.25 17.004zM21.75 17.004h-1c-1.241 0-2.25-1.009-2.25-2.25 0-.414.336-.75.75-.75S20 14.34 20 14.754c0 .414.336.75.75.75h1c.414 0 .75-.336.75-.75s-.336-.75-.75-.75h-1c-1.241 0-2.25-1.009-2.25-2.25s1.009-2.25 2.25-2.25h1c1.241 0 2.25 1.009 2.25 2.25 0 .414-.336.75-.75.75s-.75-.336-.75-.75c0-.414-.336-.75-.75-.75h-1c-.414 0-.75.336-.75.75s.336.75.75.75h1c1.241 0 2.25 1.009 2.25 2.25S22.991 17.004 21.75 17.004z"/></svg>